<svg id="Layer_1" data-name="Layer 1" xmlns="http://www.w3.org/2000/svg" viewBox="0 0 100 100"><defs><style>.cls-1{fill:#0078ef;fill-rule:evenodd;}</style></defs><title>icon-product-open-source-data-lake-analytics</title><path class="cls-1" d="M72.7,76.94h0a2.12,2.12,0,0,1-2-2.27,2.18,2.18,0,0,1,2-2.14A2.23,2.23,0,0,1,75,74.67,2.17,2.17,0,0,1,72.7,76.94Zm0-7.21h0a5,5,0,0,0-4.94,4.94,5.08,5.08,0,1,0,10.15,0A5.08,5.08,0,0,0,72.7,69.73Z"/><path class="cls-1" d="M42.28,44.42h0A12.06,12.06,0,0,0,43,22.1,13.2,13.2,0,0,0,37.84,21a11.2,11.2,0,0,0-4.16.83A12,12,0,0,0,26.61,37.4a12.43,12.43,0,0,0,15.67,7"/><path class="cls-1" d="M87,79.31h0a9.57,9.57,0,0,1-9.63,9.63H12.8A9.61,9.61,0,0,1,3,79.31V74.77a9.61,9.61,0,0,1,9.77-9.63H77.34A9.57,9.57,0,0,1,87,74.77ZM32.89,18.76h0a15.64,15.64,0,0,1,11.7.41,15.86,15.86,0,0,1,7.84,8.53,14.43,14.43,0,0,1,0,10.46l2.48,1.24a3.75,3.75,0,0,1,1.65-.83,4.31,4.31,0,0,1,3.44.28l10.87,5.92a4.86,4.86,0,0,1,2.06,2.34,5,5,0,0,1-.28,3.72A4.2,4.2,0,0,1,70,53a3.81,3.81,0,0,1-1.24.14,6.84,6.84,0,0,1-2.2-.41L55.73,46.7a4.25,4.25,0,0,1-2.2-4.54l-2.34-1.1a16.21,16.21,0,0,1-7.71,6.33,14.26,14.26,0,0,1-5.37,1,13.38,13.38,0,0,1-6.33-1.51,15.21,15.21,0,0,1,1.1-28.08ZM89.45,71.19h0v-.14L80.92,20.27A14.2,14.2,0,0,0,67,8H21.61A14,14,0,0,0,7.71,20.27l-7,50.92A11,11,0,0,0,0,74.77v4.54A12.75,12.75,0,0,0,12.8,92H77.34A12.63,12.63,0,0,0,90,79.31V74.77A16.11,16.11,0,0,0,89.45,71.19Z"/></svg>