<svg xmlns="http://www.w3.org/2000/svg" id="Layer_1" viewBox="0 0 936.4 828.3">
    <style>
        .st0{fill:#0486ff}.st1{fill:none;stroke:#fff;stroke-width:3;stroke-linecap:round;stroke-miterlimit:10}.st2{fill:#fff}.st3{fill:none;stroke:#000;stroke-width:2;stroke-miterlimit:10}.st4{fill:#00cd56}.st5,.st6{fill:none;stroke:#000;stroke-width:1.5;stroke-miterlimit:10}.st6{stroke:#fff;stroke-width:2;stroke-linecap:round}.st7{opacity:.2;fill:#0486ff}.st8{fill:none;stroke:#000;stroke-width:10;stroke-miterlimit:10}.st9{fill:#33b1ff}.st10{fill:#1b1c21}
    </style>
    <circle cx="703.7" cy="140.3" r="78" class="st0"/>
    <path d="M756.5 145.2h-55.1V80.6" class="st1"/>
    <path d="M674.3 432.2H197.9c-9 0-16.2-7.3-16.2-16.2V137.6c0-9 7.3-16.2 16.2-16.2h476.4c9 0 16.2 7.3 16.2 16.2V416c.1 8.9-7.2 16.2-16.2 16.2z"/>
    <path d="M197 405.6V135.9h478.2v269.7z" class="st2"/>
    <g>
        <path d="M153.9 640.3H729" class="st3"/>
        <path d="M152 476.5h-42.6c-2.3 0-4.3-1.6-4.7-3.9L92.4 408h77.2l-13 64.7c-.5 2.3-2.4 3.8-4.6 3.8z"/>
        <path d="M150 394.1H77.2c-1.1 0-2-.9-2-2v-54.8c0-1.1.9-2 2-2H150c1.1 0 2 .9 2 2v54.8c0 1.1-.9 2-2 2z" class="st4"/>
        <path d="M129.8 460.6s-3.9-8 3.2-23.4c8.2-17.8-2.3-19.1-4.4-19.3s-2.1-.3 3.4-10.8c5.4-10.5-5.2-6.1-9.1-10.6-3.8-4.5-1.2-8.1 3.9-14.4 5.1-6.3-10.6-9.4-21.8-18.2S94 377 94.7 383.6c.7 6.7 18.1 3 9.7 15.9s-1.2 8.7 6.2 11.9c7.4 3.1 6.4 4.9 2 15-4.4 10.2 5.7 16.4 5.7 16.4s6.7 5.6 11.5 17.8z" class="st2"/>
        <path d="M129.8 460.6s-4.1-44.2-24.4-87.2" class="st5"/>
        <path d="M136.1 456.6s2.8-1.5 3.1-10.9-13.6-2.3 0-18.2c0 0 3.5-5-1.3-10.6s-5.1-7.8.3-17.2-.5-11.4 1-19.2c1.5-7.8 14.4-11.1 9.6 4.8 0 0-2.1 7.8 1.5 11.9 3.6 4 8.4 9.3 3.4 16.9-5.1 7.6-5.4 9.9-3.4 15.9 2.1 6.1.5 9-5.8 15.9 0 .1-5.9 8-8.4 10.7z" class="st2"/>
        <path d="M134.9 458.7s11.6-9.6 9.6-60.9" class="st5"/>
        <path d="M412.9 129.8h46.4" class="st6"/>
        <circle cx="408.8" cy="129.8" r="1.4" class="st2"/>
        <path d="M200.2 140.3h471.1v34.1H200.2z"/>
        <path d="M552.1 226.4v100.7h9c0-4.3-.1-8.5.1-12.7.1-1.2 1.1-2.5 2.1-3.4 3.2-2.7 6.5-5.3 10-7.6 4.1-2.7 8.5-5.1 12.7-7.7.8-.5 1.6-1.5 1.9-2.4.9-3.1.9-6.2-.4-9.2-.9-2-2-4-2.8-6-1-2.4-2-4.9-2.7-7.5-.6-2.2-.1-3 1.9-4.3-.2-1.4-.7-2.9-.7-4.3.1-3 .4-6.1.9-9.1.3-1.9 1.5-3.4 3.1-4.5 1.3-1 2.4-2.2 3.7-3.2 7.9-6.1 16.4-5.7 23.8.9 1.1 1 2.4 1.8 3.3 2.9 1 1.1 2 2.4 2.3 3.8 1 4 1.6 8.1.4 12.3-.1.4 0 1.3.3 1.4 1.9.9 1.9 2.5 1.5 4.1-.7 2.5-1.6 5.1-2.7 7.4-1.5 3.2-3.4 6.2-3.6 9.8-.1 1.8.1 3.8.6 5.5.3.9 1.2 1.9 2.1 2.4 7.3 4 14.4 8.2 20.8 13.5 2.5 2.1 4.1 4.4 4 7.8-.1 3.3 0 6.5 0 9.9h9V226.4H552.1zM211.1 226.4v100.7h9c0-4.3-.1-8.5.1-12.7.1-1.2 1.1-2.5 2.1-3.4 3.2-2.7 6.5-5.3 10-7.6 4.1-2.7 8.5-5.1 12.7-7.7.8-.5 1.6-1.5 1.9-2.4.9-3.1.9-6.2-.4-9.2-.9-2-2-4-2.8-6-1-2.4-2-4.9-2.7-7.5-.6-2.2-.1-3 1.9-4.3-.2-1.4-.7-2.9-.7-4.3.1-3 .4-6.1.9-9.1.3-1.9 1.5-3.4 3.1-4.5 1.3-1 2.4-2.2 3.7-3.2 7.9-6.1 16.4-5.7 23.8.9 1.1 1 2.4 1.8 3.3 2.9 1 1.1 2 2.4 2.3 3.8 1 4 1.6 8.1.4 12.3-.1.4 0 1.3.3 1.4 1.9.9 1.9 2.5 1.5 4.1-.7 2.5-1.6 5.1-2.7 7.4-1.5 3.2-3.4 6.2-3.6 9.8-.1 1.8.1 3.8.6 5.5.3.9 1.2 1.9 2.1 2.4 7.3 4 14.4 8.2 20.8 13.5 2.5 2.1 4.1 4.4 4 7.8-.1 3.3 0 6.5 0 9.9h9V226.4H211.1z" class="st7"/>
        <path d="M410.2 427.8h52.5v48.7h-52.5z"/>
        <path d="M61.2 476.5h743.1" class="st8"/>
        <path d="M341.8 248.2h178v184h-178z" class="st7"/>
        <path d="M407.4 299.4s-4.9 26.2 2.9 45.3l27.4 6.3 10.5-13.4 4.8-32.9-8-14h-23.9l-13.7 8.7z" class="st2"/>
        <path d="M350.1 729.1s-6.5 7.1-12.8 10.2c-6.3 3.1-17.2 9.5-17.6 14.6-.4 5.1 26.8 3.1 33.8.6 6.1-2.2 7.5-6.5 14.5-6.1 6.9.4 9.6-1.8 11-9.8 0 0-1.2-3.5-1-5.3l1-2.2c-.2 0-22.2-1.2-28.9-2zM432.1 734.6s-5.5 7.7-3.7 14.1c0 0 .8 1.2-1.2 3.3-2 2-5.1 8.8 11.2 7.9 0 0 15.1 1.7 14.7-8.3 0 0-1.4-14.9-1-16.9h-20z" class="st9"/>
        <path d="M424.7 363.7l11-2.9 3.6 156.6s-8.5 6.6-33.8.5c-.7-.2-1.4-.3-2.1-.5-26.9-7 14.6-153.7 14.6-153.7h6.7z"/>
        <path d="M324.6 397.5s-2.3-2.6-3.8-7c-1.4-4.5-8.7-10.3-12-15.7 0 0-5.4-2.6-2.3 3.8 3.1 6.3 4 9.6-.9 8.9-4.9-.7-22.5-6.6-28.4-8.7-5.9-2.1-11-.2-1.9 5.6s34.7 15.9 36.3 22c.1 0 6.8-5.8 13-8.9z" class="st10"/>
        <path d="M545.5 371.9s-3.3 9.4 15.7 0c0 0 18.5-11 19-2.6 0 0 2.6 2.8 0 5.6 0 0-16 15-33.3 27.5l-1.6 2.3s-6.8-8-12.2-7.5c0 0-1.6-9.6 4.7-21.6 0 0 4.2-6.8 6.3-14.3 2.1-7.5 4.7-2.8 2.8 2.8 0 .1-1.4 5.3-1.4 7.8zM379.5 505.5s-4.5 26-11 88.6c0 0-3.9 29-5.2 37.9-1.3 8.9-8.4 58.7-8 76.9 0 0-.2 3.9-5.6 6.7s-2.4 13-2.2 17.8c-.8 1.8 20.8 11.3 31.1 4.4 0 0 2.3-3.5 6-16.5s20.8-63.3 20.8-91c0 0 14.7-53.9 18.8-64.1 4.1-10.2 3.7-11 5 1.3 1.3 12.3 3.9 52.9 4.3 64.8s-.2 46.8 0 52.6c.2 5.8-6.1 19.5-6.1 25.6 0 6.1-1.9 11.7.2 16 2.2 4.3-1.5 5.8-.4 8.4s2.6 3.7 2.6 3.7 16 4.5 23 1.5c0 0 2.6-1.3 3.7-5.6s0-4.3 3-7.6c3-3.2 5.4-16.5 5.4-22.3 0-5.8 4.5-23.2 5.2-31.6.6-8.4 2.4-79.9 5.4-102.3 3-22.3 7.5-35.7 6.9-59.5 0 0-72.8.6-102.9-5.7z"/>
        <path d="M408.1 346.9s-8.2 9.3-41.3 24.1c0 0-9.9 2.3-10.1 16.9 0 0-1.2 8.9-2.3 11.5s-6.3 15.5-6.6 22.1c0 0-.5 3.3-6.1-1.2 0 0-6.1-6.6-8.7-10.6-2.6-4 .7-11-9.6-14.8 0 0-13.6 5.4-17.4 16-3.8 10.6-3.3 8.4 0 11.7 3.3 3.3 16 16.7 20.2 23.2 4.2 6.6 11.7 30.5 27.5 24.4s16.4-8.4 22.1-20.2c0 0 2.1-2.1 2.1 1.4s1.6 15.7 2.1 21.8c0 0-3.8 10.6-6.3 31.9 0 0-2.3 17.1-2.3 18.5s25.6 10.6 53.5 7.5c0 0 0-63.6-1.2-97.2v-59.1l-15.6-27.9zM442.3 347.9s-10.6 21.4-14.1 25.8c0 0 2.3 104.2 3.8 123.2 1.4 19 .5 34.9.5 34.9s41.1 2.9 53.3-3.2c0 0-.9-29.8-5.4-46 0 0-3.8-31-.5-46.2 0 0-.2-2.6 4 5.6s23 34.3 35.7 25.1c12.7-9.2 30-43.4 36.1-51.6 0 0-10.6-18.6-24.4-22.8 0 0-9.9 12.7-15.3 26.5 0 0-2.6 6.8-8 .5 0 0-5.2-8.4-6.3-9.2s1.9-10.3-6.6-20.7c0 0-.7-7.3-.7-10.8s-1.2-8.2-9.4-9.6c-8.2-1.3-25.3-8.3-42.7-21.5z" class="st9"/>
        <path d="M422.8 373.1s-6.5 87.2-12.1 103.6c-.5 1.6-.6 3.3-.1 4.9l4.9 14.8c1 3.7 3.2 5 5.6 2.2l11.5-14.9c1.4-1.6 2.8-3.9 2.6-6.2L429 373.1h-6.2z" class="st2"/>
        <path d="M421.1 370.4l1.9 4h5.9l5.6-10.4z" class="st2"/>
        <path d="M394.6 293.2c-1.6-2.8-.6-12 5.1-12.4 1.5-.1 7.2.7 9.4-1.6 2.1-2.2 10.2-2.4 13.3-3 3.4-.6 4.9-.1 12.9-2.1 4-1 8.7 1.2 12.3 7.6 0 0 12.1 2.6 9.9 22-2.2 19.4-6.4 31.8-9.3 33.9 0 0-7.3 14.2-10 21.1-2.6 6.6-12.8 15.7-23.5 10.5-5.8-2.9-7.6-10.3-6.8-17.4.3-2.1-1.9-3.9-2.6-6.7-.9-3.6-.1-7.4 1.3-14.9 0 0 .5 14.8 7.9 8.7 0 0 10.2-2.4 17.3 5.8 0 0 9.9-1.1 14-17.4 1.3-5.1 8.4-21.2.2-21.1-1.4 0-1.7 1.3-3.7 3.9 0 0 4.7-16.7-11.2-8.4-8.5 4.4-22.6 15.7-36.5-8.5z"/>
        <path d="M327.9 743.1s7.6 0 8.1 5.5M334.2 739.9s7.6 0 8.1 5.5M435 748.9s5.2-3.2 11.8 0M435 744.5s5.2-3.2 11.8 0" class="st6"/>
        <path d="M341.8 232.3h89v9.3h-89zM211.9 211h45.4v9.3h-45.4zM552.1 211h45.4v9.3h-45.4z" class="st4"/>
        <path d="M211.9 476.5h18.4v163.8h-18.4zM671.3 476.5h18.4v163.8h-18.4z"/>
        <g>
            <path d="M587.4 617s5-32 36.4-37.1c31.3-5.2 52.3 17.2 46.5 35.3 0 0-.8 5.2-12.9 1.9-12-3.3-18.3-2.5-36.9-20.1 0 0-6.4-6.6-16.4-3.5 0-.2-12.2 6-16.7 23.5z" class="st4"/>
            <path d="M587.4 609.1s8.2-1.9 2.1-15.4c0 0-3.3-4.6 5.2-15.8s23.9-15.1 19.7-33.4c-4.1-18.3-16.2-13.3-22.2-6.8-6 6.4-11.6 9.1-9.3 33.6 0 0 4 17.4 4.5 19.5.5 2.1 3.7 16.2 0 18.3z" class="st4"/>
            <path d="M587.4 609.1s-4.3-14.5-20.5-12.7c0 0-11-1-20.3 9s-28.2 19-31.7 17.8c-3.5-1.2-6.2-12.9 9.5-24.6 15.8-11.7 36.9-8.2 48.8-3.6 11.8 4.5 11.7 6.2 14.2 14.1z" class="st4"/>
            <path d="M587.4 605.4s-1.2-8.3-8-16.6-14.7-18.3-14.7-18.3-14.1-16.4-34.4-16.2-6.4 12.7-4.6 17.4c1.9 4.8 20.7 14.1 37.6 12.4 0 0 8.9.4 12 3.9 3.1 3.7 8.8 5 12.1 17.4z" class="st4"/>
            <path d="M550.9 598.8h73c2 0 3.2 2.1 2.2 3.8l-23.7 40.1c-.5.8-1.3 1.2-2.2 1.2h-24.7c-.9 0-1.7-.5-2.2-1.2l-24.5-40.1c-1.1-1.6.2-3.8 2.1-3.8z" class="st0"/>
            <path d="M566.3 633.9h5.6v18.7h-5.6zM603.5 633.9h5.6v18.7h-5.6zM586 633.9h2.8v18.7H586z"/>
            <path d="M621.4 597.7l9.6 8.2.9-6.5zM547.7 604.3l10.3-6.4-5.8-3-8.2 2.8z" class="st4"/>
        </g>
    </g>
</svg>
